<?xml version="1.0" encoding="utf-8"?>
<!-- Generator: Adobe Illustrator 18.0.0, SVG Export Plug-In . SVG Version: 6.00 Build 0)  -->
<!DOCTYPE svg PUBLIC "-//W3C//DTD SVG 1.1//EN" "http://www.w3.org/Graphics/SVG/1.1/DTD/svg11.dtd">
<svg version="1.1" id="Livello_1" xmlns="http://www.w3.org/2000/svg" xmlns:xlink="http://www.w3.org/1999/xlink" x="0px" y="0px"
	 viewBox="0 0 123 46.519" enable-background="new 0 0 123 46.519" xml:space="preserve">
<g>
	<path fill="#E02129" d="M122.368,0.245v27.687H46.417c0,0,3.055-0.906,3.055-5.538V5.781V0.245H122.368z"/>
	<path fill="#5B5B5A" d="M46.514,22.393c0,3.045-2.491,5.538-5.538,5.538H0.52V0.245h45.994V22.393z"/>
	<path fill="#FFFFFF" d="M66.018,10.42c-0.73-0.799-1.928-1.337-3.335-1.337c-2.883,0-4.688,2.241-4.688,4.933
		c0,2.743,1.805,4.933,4.741,4.933c1.146,0,2.153-0.225,2.864-0.607v-3.421h-2.726v-1.46h4.428v5.956
		c-1.284,0.695-2.812,1.077-4.619,1.077c-3.838,0-6.564-2.692-6.564-6.478c0-3.838,2.814-6.444,6.547-6.444
		c1.947,0,3.544,0.625,4.55,1.599L66.018,10.42z"/>
	<path fill="#FFFFFF" d="M71.978,20.18h-1.719V7.885h3.943c2.378,0,4.377,0.902,4.377,3.404c0,1.805-1.234,2.951-2.988,3.246
		l3.437,5.645h-2.082l-3.125-5.469h-1.842V20.18z M71.978,13.268h1.979c1.616,0,2.883-0.504,2.883-1.979
		c0-1.477-1.267-1.947-2.76-1.947h-2.101V13.268z"/>
	<path fill="#FFFFFF" d="M86.794,20.493c-3.735,0-6.495-2.692-6.495-6.478c0-3.838,2.76-6.444,6.495-6.444
		c3.75,0,6.53,2.606,6.53,6.444C93.324,17.801,90.544,20.493,86.794,20.493 M86.794,9.082c-2.831,0-4.638,2.241-4.638,4.933
		c0,2.743,1.824,4.933,4.638,4.933c2.848,0,4.671-2.189,4.671-4.933C91.465,11.323,89.66,9.082,86.794,9.082"/>
	<path fill="#FFFFFF" d="M95.584,15.63V7.885h1.719v7.639c0,1.685,0.764,3.421,3.057,3.421c2.292,0,3.057-1.737,3.057-3.421V7.885
		h1.719v7.745c0,2.518-1.528,4.864-4.776,4.864C97.113,20.494,95.584,18.148,95.584,15.63"/>
	<path fill="#FFFFFF" d="M108.039,7.884h3.752c2.657,0,4.394,1.026,4.394,3.421c0,2.466-1.928,3.475-4.482,3.475h-1.945v5.401
		h-1.719V7.884z M109.758,13.32h1.824c1.685,0,2.866-0.556,2.866-2.015c0-1.475-1.215-1.962-2.831-1.962h-1.859V13.32z"/>
	<path fill="#FFFFFF" d="M38.488,8.397c0.145-0.451,0.5-0.598,1.146-0.598h1.469l-4.91,12.413h-0.071h-1.84h-0.071L29.303,7.8h1.469
		c0.648,0,1.001,0.147,1.146,0.598l3.16,8.965h0.252L38.488,8.397z"/>
	<path fill="#FFFFFF" d="M9.733,19.335c0,0.476-0.378,0.863-0.852,0.863H7.51l0.002-12.4h4.052c2.841,0,4.68,1.001,4.68,3.595
		c0,2.736-2.191,3.683-4.822,3.683H9.733V19.335z M9.722,13.218h1.544c1.437,0,2.753-0.35,2.753-1.824
		c0-1.473-1.316-1.737-2.684-1.737H9.722V13.218z"/>
	<path fill="#FFFFFF" d="M23.696,9.726l-0.04,9.607c0,0.474-0.378,0.863-0.852,0.863h-1.318V9.726L17.7,9.724V7.796h10.037
		l-0.004,1.217c0,0.466-0.271,0.713-0.68,0.713H23.696z"/>
	<path fill="#5B5B5A" d="M4.288,41.272H2.75v3.015c0,0.693,0.245,0.974,0.818,0.974c0.208,0,0.476-0.048,0.671-0.145l0.036,0.938
		c-0.267,0.099-0.621,0.159-0.974,0.159c-1.087,0-1.685-0.609-1.685-1.803v-3.137h-1.11v-0.94h1.11v-1.66H2.75v1.66h1.538V41.272z"
		/>
	<path fill="#5B5B5A" d="M6.727,41.212c0.267-0.573,1.001-1.037,1.83-1.037c1.488,0,2.159,1.062,2.159,2.355v3.586H9.57v-3.196
		c0-0.94-0.245-1.769-1.305-1.769c-0.904,0-1.563,0.755-1.563,1.903v3.062H5.556v-9.223h1.146v4.319H6.727z"/>
	<path fill="#5B5B5A" d="M17.669,43.568h-4.587c0.036,0.986,0.867,1.756,1.88,1.756c0.779,0,1.354-0.392,1.683-0.879l0.804,0.646
		c-0.621,0.806-1.463,1.184-2.487,1.184c-1.758,0-3.051-1.221-3.051-3.039c0-1.805,1.293-3.062,2.99-3.062
		c1.708,0,2.782,1.16,2.782,3.001C17.682,43.296,17.682,43.432,17.669,43.568 M16.522,42.712c-0.025-0.915-0.562-1.635-1.622-1.635
		c-0.99,0-1.746,0.732-1.819,1.635H16.522z"/>
	<path fill="#5B5B5A" d="M25.414,40.173c0.768,0,1.44,0.342,1.794,1.16c0.39-0.745,1.146-1.16,1.964-1.16
		c1.488,0,2.161,1.062,2.161,2.355v3.586h-1.148v-3.207c0-0.94-0.281-1.769-1.282-1.769c-1.049,0-1.463,0.951-1.463,1.853v3.123
		h-1.146v-3.439c0-0.904-0.306-1.538-1.221-1.538c-0.841,0-1.477,0.756-1.477,1.903v3.074H22.45v-4.537
		c0-0.306-0.011-0.867-0.05-1.246h1.087c0.023,0.294,0.048,0.709,0.048,0.953h0.036C23.865,40.674,24.536,40.173,25.414,40.173"/>
	<path fill="#5B5B5A" d="M33.695,38.979c-0.415,0-0.755-0.33-0.755-0.734c0-0.415,0.34-0.741,0.755-0.741
		c0.416,0,0.77,0.315,0.77,0.741C34.465,38.66,34.112,38.979,33.695,38.979 M34.27,46.116h-1.146v-5.783h1.146V46.116z"/>
	<path fill="#5B5B5A" d="M37.27,40.333c0.025,0.294,0.05,0.709,0.05,0.951h0.036c0.281-0.623,1.049-1.11,1.878-1.11
		c1.488,0,2.161,1.062,2.161,2.355v3.586h-1.148v-3.207c0-0.942-0.256-1.771-1.316-1.771c-0.904,0-1.549,0.756-1.549,1.905v3.074
		h-1.148v-4.537c0-0.306-0.011-0.867-0.048-1.246H37.27z"/>
	<path fill="#5B5B5A" d="M45.651,46.274c-1.78,0-2.917-1.368-2.917-3.062c0-1.708,1.171-3.039,2.904-3.039
		c0.94,0,1.66,0.464,2.063,1.026h0.025v-4.306h1.146v9.223H47.76v-0.915h-0.023C47.297,45.896,46.468,46.274,45.651,46.274
		 M45.845,45.312c1.171,0,1.952-0.976,1.952-2.086c0-1.112-0.781-2.101-1.952-2.101c-1.257,0-1.916,1.003-1.916,2.088
		S44.588,45.312,45.845,45.312"/>
	<path fill="#5B5B5A" d="M55.359,46.273c-1.769,0-3.112-1.28-3.112-3.062c0-1.78,1.343-3.037,3.112-3.037
		c1.769,0,3.123,1.257,3.123,3.037C58.482,44.993,57.128,46.273,55.359,46.273 M55.359,41.125c-1.232,0-1.928,0.99-1.928,2.086
		c0,1.098,0.695,2.101,1.928,2.101c1.244,0,1.927-1.003,1.927-2.101C57.287,42.115,56.603,41.125,55.359,41.125"/>
	<path fill="#5B5B5A" d="M62.618,41.272h-1.343v4.843h-1.146v-4.843H58.98v-0.94h1.148v-1.207c0-1.354,0.596-2.38,2.159-2.38
		c0.269,0,0.5,0.025,0.72,0.086l-0.134,0.99c-0.172-0.05-0.353-0.086-0.575-0.086c-0.865,0-1.024,0.682-1.024,1.391v1.207h1.343
		V41.272z"/>
	<path fill="#5B5B5A" d="M69.021,40.173c0.77,0,1.44,0.342,1.794,1.16c0.39-0.745,1.146-1.16,1.964-1.16
		c1.488,0,2.159,1.062,2.159,2.355v3.586h-1.146v-3.207c0-0.94-0.281-1.769-1.282-1.769c-1.049,0-1.461,0.951-1.461,1.853v3.123
		H69.9v-3.439c0-0.904-0.306-1.538-1.221-1.538c-0.842,0-1.475,0.756-1.475,1.903v3.074h-1.148v-4.537
		c0-0.306-0.011-0.867-0.05-1.246h1.087c0.023,0.294,0.05,0.709,0.05,0.953h0.034C67.47,40.674,68.142,40.173,69.021,40.173"/>
	<path fill="#5B5B5A" d="M79.119,46.273c-1.769,0-3.11-1.28-3.11-3.062c0-1.78,1.341-3.037,3.11-3.037
		c1.769,0,3.123,1.257,3.123,3.037C82.243,44.993,80.888,46.273,79.119,46.273 M79.119,41.125c-1.232,0-1.928,0.99-1.928,2.086
		c0,1.098,0.695,2.101,1.928,2.101c1.244,0,1.927-1.003,1.927-2.101C81.047,42.115,80.363,41.125,79.119,41.125"/>
	<polygon fill="#5B5B5A" points="86.073,46.115 84.828,46.115 82.474,40.332 83.743,40.332 85.437,44.885 85.464,44.885 
		87.17,40.332 88.391,40.332 	"/>
	<path fill="#5B5B5A" d="M94.524,43.568h-4.587c0.038,0.986,0.867,1.756,1.878,1.756c0.781,0,1.356-0.392,1.685-0.879l0.806,0.646
		c-0.623,0.806-1.465,1.184-2.491,1.184c-1.756,0-3.049-1.221-3.049-3.039c0-1.805,1.293-3.062,2.99-3.062
		c1.708,0,2.782,1.16,2.782,3.001C94.538,43.296,94.538,43.432,94.524,43.568 M93.378,42.712c-0.023-0.915-0.56-1.635-1.622-1.635
		c-0.988,0-1.744,0.732-1.819,1.635H93.378z"/>
	<path fill="#5B5B5A" d="M98.735,40.173c0.768,0,1.44,0.342,1.794,1.16c0.388-0.745,1.146-1.16,1.964-1.16
		c1.486,0,2.159,1.062,2.159,2.355v3.586h-1.148v-3.207c0-0.94-0.279-1.769-1.28-1.769c-1.049,0-1.463,0.951-1.463,1.853v3.123
		h-1.148v-3.439c0-0.904-0.306-1.538-1.219-1.538c-0.842,0-1.477,0.756-1.477,1.903v3.074H95.77v-4.537
		c0-0.306-0.013-0.867-0.05-1.246h1.087c0.025,0.294,0.048,0.709,0.048,0.953h0.036C97.185,40.674,97.854,40.173,98.735,40.173"/>
	<path fill="#5B5B5A" d="M111.555,43.568h-4.591c0.04,0.986,0.869,1.756,1.882,1.756c0.779,0,1.354-0.392,1.683-0.879l0.804,0.646
		c-0.621,0.806-1.463,1.184-2.487,1.184c-1.758,0-3.051-1.221-3.051-3.039c0-1.805,1.293-3.062,2.99-3.062
		c1.71,0,2.782,1.16,2.782,3.001C111.566,43.296,111.566,43.432,111.555,43.568 M110.406,42.712
		c-0.025-0.915-0.562-1.635-1.622-1.635c-0.99,0-1.746,0.732-1.821,1.635H110.406z"/>
	<path fill="#5B5B5A" d="M113.834,40.333c0.025,0.294,0.05,0.709,0.05,0.951h0.036c0.281-0.623,1.049-1.11,1.88-1.11
		c1.488,0,2.159,1.062,2.159,2.355v3.586h-1.148v-3.207c0-0.942-0.256-1.771-1.316-1.771c-0.904,0-1.549,0.756-1.549,1.905v3.074
		h-1.146v-4.537c0-0.306-0.013-0.867-0.05-1.246H113.834z"/>
	<path fill="#5B5B5A" d="M122.494,41.272h-1.538v3.015c0,0.693,0.245,0.974,0.818,0.974c0.208,0,0.476-0.048,0.671-0.145
		l0.036,0.938c-0.267,0.099-0.621,0.159-0.974,0.159c-1.087,0-1.683-0.609-1.683-1.803v-3.137h-1.112v-0.94h1.112v-1.66h1.133v1.66
		h1.538V41.272z"/>
</g>
</svg>
